<svg width="93" height="93" viewBox="0 0 93 93" fill="none" xmlns="http://www.w3.org/2000/svg">
<g clip-path="url(#clip0_333_209)">
<path d="M0 25C0 11.1929 11.1929 0 25 0H68C81.8071 0 93 11.1929 93 25V68C93 81.8071 81.8071 93 68 93H25C11.1929 93 0 81.8071 0 68V25Z" fill="#E040FB"/>
<path d="M36.768 0L46.3042 32.7861H46.6674L46.5 0H70.4624L55.1137 46.5H37.8579L22.5092 0H36.768Z" fill="white"/>
<path d="M56.232 93L46.6958 60.2139H46.3326L46.3042 93H22.5376L37.8863 46.5H55.1421L70.4908 93H56.232Z" fill="white"/>
<path d="M0 56.232L32.7861 46.6958V46.3326H0V22.5376L46.5 37.8863V55.1421L0 70.4908V56.232Z" fill="white"/>
<path d="M93 36.768L60.2139 46.3042V46.6674L93 46.5V70.4624L46.5 55.1137V37.8579L93 22.5092V36.768Z" fill="white"/>
</g>
<defs>
<clipPath id="clip0_333_209">
<rect width="93" height="93" fill="white"/>
</clipPath>
</defs>
</svg>
